<svg width="17" height="16" viewBox="0 0 17 16" fill="none" xmlns="http://www.w3.org/2000/svg">
<path d="M8.5 15.875C5.80469 15.875 3.34375 14.4688 1.99609 12.125C0.648438 9.81055 0.648438 6.96875 1.99609 4.625C3.34375 2.31055 5.80469 0.875 8.5 0.875C11.166 0.875 13.627 2.31055 14.9746 4.625C16.3223 6.96875 16.3223 9.81055 14.9746 12.125C13.627 14.4688 11.166 15.875 8.5 15.875ZM7.32812 10.7188C6.91797 10.7188 6.625 11.041 6.625 11.4219C6.625 11.832 6.91797 12.125 7.32812 12.125H9.67188C10.0527 12.125 10.375 11.832 10.375 11.4219C10.375 11.041 10.0527 10.7188 9.67188 10.7188H9.4375V8.14062C9.4375 7.75977 9.11523 7.4375 8.73438 7.4375H7.32812C6.91797 7.4375 6.625 7.75977 6.625 8.14062C6.625 8.55078 6.91797 8.84375 7.32812 8.84375H8.03125V10.7188H7.32812ZM8.5 4.625C7.97266 4.625 7.5625 5.06445 7.5625 5.5625C7.5625 6.08984 7.97266 6.5 8.5 6.5C8.99805 6.5 9.4375 6.08984 9.4375 5.5625C9.4375 5.06445 8.99805 4.625 8.5 4.625Z" fill="black"/>
</svg>
